<svg xmlns="http://www.w3.org/2000/svg" width="78" height="24" viewBox="0 0 78 24" fill="none">
<path d="M10.0714 0H75.6892C77.4833 0 78.3753 1.7116 77.6685 3.80436L72.3838 19.4677C71.6769 21.5605 69.6303 23.2721 67.8362 23.2721H2.22175C0.427646 23.2721 -0.464358 21.5605 0.242513 19.4677L5.52722 3.80436C6.23409 1.7116 8.28065 0 10.0748 0H10.0714Z" fill="#F47721"/>
<path d="M11.5689 2.08496H72.6089C74.2785 2.08496 75.157 3.49452 74.5646 5.21691L70.1147 18.1079C69.5223 19.8303 67.6676 21.2398 65.998 21.2398H4.95799C3.28843 21.2398 2.40989 19.8303 3.00231 18.1079L7.45223 5.21691C8.04802 3.49452 9.89935 2.08496 11.5689 2.08496Z" fill="white"/>
<path d="M8.89453 16.9887L12.0216 7.63965H14.9332L15.0881 12.6702L18.609 7.63965H21.5206L18.3935 16.9887H15.7041L17.0538 12.9507L14.2297 17.0427H13.0213L12.9338 12.9507L11.584 16.9887H8.89453Z" fill="#ED1C24"/>
<path d="M21.8586 16.9887L23.0434 13.4433L21.7441 7.63965H24.9587L25.43 10.5846L27.8199 7.63965H31.0075L25.8709 13.4289L24.6793 16.9887H21.8586Z" fill="#ED1C24"/>
<path d="M30.1396 16.9887L33.2667 7.63965H36.1817L36.3332 12.6702L39.8541 7.63965H42.7657L39.6386 16.9887H36.9492L38.299 12.9507L35.4748 17.0427H34.2698L34.1789 12.9507L32.8291 16.9887H30.1396Z" fill="#00A451"/>
<path d="M44.9581 13.4145H46.5334L46.6377 10.7536L44.9614 13.4145H44.9581ZM39.8652 16.9887L46.2473 7.63965H49.1993L49.3137 16.9887H46.3079V15.6008H43.7396L42.8173 16.9887H39.8652Z" fill="#00A451"/>
<path d="M54.1308 11.5771H55.1675C55.4739 11.5771 55.7128 11.5015 55.8879 11.3469C56.0629 11.1923 56.1841 11.0089 56.2581 10.7932C56.3288 10.5774 56.3288 10.3976 56.2581 10.2538C56.1841 10.11 55.9956 10.0381 55.6893 10.0381H54.6525L54.1375 11.5807L54.1308 11.5771ZM49.5395 16.9887L52.6666 7.63965H56.8001C57.3151 7.63965 57.756 7.71516 58.1162 7.86259C58.4764 8.01361 58.7558 8.22217 58.9476 8.49185C59.1428 8.76154 59.2506 9.08516 59.2741 9.45913C59.2977 9.83309 59.2337 10.243 59.0856 10.6925C58.8702 11.3361 58.5908 11.8683 58.2441 12.2818C57.9008 12.6989 57.4733 13.0405 56.9616 13.3102L57.4901 16.9816H54.3395L54.1005 13.9251H53.3398L52.3165 16.9816H49.5361L49.5395 16.9887Z" fill="#00A451"/>
<path d="M59.4986 16.9887L61.7808 10.1639H59.4717L60.3166 7.63965H67.7555L66.914 10.1639H64.6184L62.3328 16.9887H59.4986Z" fill="#00A451"/>
</svg>