<svg xmlns="http://www.w3.org/2000/svg" width="151" height="63" viewBox="0 0 151 63" fill="none">
<path d="M19.5195 0H146.694C150.171 0 151.9 3.31728 150.53 7.37327L140.288 37.7305C138.918 41.7865 134.951 45.1038 131.474 45.1038H4.306C0.828825 45.1038 -0.899978 41.7865 0.470016 37.7305L10.7124 7.37327C12.0823 3.31728 16.0488 0 19.526 0H19.5195Z" fill="#F47721"/>
<path d="M22.4233 4.04285H140.726C143.961 4.04285 145.664 6.77472 144.516 10.1129L135.891 35.097C134.743 38.4352 131.149 41.1671 127.913 41.1671H9.61064C6.37485 41.1671 4.67214 38.4352 5.82033 35.097L14.4448 10.1129C15.5995 6.77472 19.1875 4.04285 22.4233 4.04285Z" fill="white"/>
<path d="M17.2383 32.9277L23.2989 14.8081H28.9419L29.242 24.5578L36.0659 14.8081H41.709L35.6484 32.9277H30.4359L33.0519 25.1014L27.5785 33.0322H25.2364L25.0668 25.1014L22.4508 32.9277H17.2383Z" fill="#ED1C24"/>
<path d="M42.3663 32.9277L44.6627 26.0562L42.1445 14.8081H48.3747L49.2881 20.5158L53.9199 14.8081H60.098L50.1427 26.0283L47.8333 32.9277H42.3663Z" fill="#ED1C24"/>
<path d="M58.415 32.9277L64.4756 14.8081H70.1252L70.4188 24.5578L77.2427 14.8081H82.8857L76.8251 32.9277H71.6126L74.2287 25.1014L68.7552 33.0322H66.4197L66.2436 25.1014L63.6275 32.9277H58.415Z" fill="#00A451"/>
<path d="M87.1351 26.0004H90.1883L90.3905 20.8433L87.1416 26.0004H87.1351ZM77.2646 32.9277L89.6337 14.8081H95.3551L95.5769 32.9277H89.7512V30.2376H84.7735L82.986 32.9277H77.2646Z" fill="#00A451"/>
<path d="M104.911 22.4392H106.92C107.514 22.4392 107.977 22.2929 108.316 21.9932C108.655 21.6935 108.89 21.3381 109.034 20.92C109.171 20.5018 109.171 20.1534 109.034 19.8746C108.89 19.5959 108.525 19.4565 107.931 19.4565H105.922L104.924 22.4462L104.911 22.4392ZM96.0124 32.9277L102.073 14.8081H110.084C111.082 14.8081 111.937 14.9545 112.635 15.2402C113.333 15.5329 113.874 15.9371 114.246 16.4598C114.625 16.9825 114.833 17.6097 114.879 18.3345C114.925 19.0592 114.801 19.8537 114.514 20.7248C114.096 21.9723 113.555 23.0037 112.883 23.8052C112.217 24.6136 111.389 25.2756 110.397 25.7983L111.422 32.9137H105.315L104.852 26.99H103.378L101.395 32.9137H96.0059L96.0124 32.9277Z" fill="#00A451"/>
<path d="M115.317 32.9277L119.74 19.7004H115.265L116.902 14.8081H131.32L129.689 19.7004H125.24L120.81 32.9277H115.317Z" fill="#00A451"/>
<path d="M0.828 60.1038V51.7038H3.636C4.612 51.7038 5.416 51.8798 6.048 52.2318C6.688 52.5758 7.16 53.0638 7.464 53.6958C7.776 54.3198 7.932 55.0558 7.932 55.9038C7.932 56.7518 7.776 57.4918 7.464 58.1238C7.16 58.7478 6.692 59.2358 6.06 59.5878C5.428 59.9318 4.62 60.1038 3.636 60.1038H0.828ZM2.448 58.7118H3.552C4.24 58.7118 4.78 58.5998 5.172 58.3758C5.572 58.1518 5.856 57.8318 6.024 57.4158C6.192 56.9918 6.276 56.4878 6.276 55.9038C6.276 55.3118 6.192 54.8078 6.024 54.3918C5.856 53.9678 5.572 53.6438 5.172 53.4198C4.78 53.1958 4.24 53.0838 3.552 53.0838H2.448V58.7118ZM9.31238 60.1038V51.7038H14.8324V53.0118H10.9324V55.2078H14.4724V56.4678H10.9324V58.7958H14.8324V60.1038H9.31238ZM16.3085 60.1038V51.7038H17.9285V58.8438H21.6125V60.1038H16.3085ZM22.9999 60.1038V51.7038H24.6199V60.1038H22.9999ZM28.6814 60.1038L25.6214 51.7038H27.3494L29.6774 58.4478L32.0174 51.7038H33.7334L30.6734 60.1038H28.6814ZM34.7421 60.1038V51.7038H40.2621V53.0118H36.3621V55.2078H39.9021V56.4678H36.3621V58.7958H40.2621V60.1038H34.7421ZM41.7382 60.1038V51.7038H44.8702C45.5502 51.7038 46.1102 51.8198 46.5502 52.0518C46.9902 52.2838 47.3182 52.5958 47.5342 52.9878C47.7502 53.3718 47.8582 53.7998 47.8582 54.2718C47.8582 54.7198 47.7542 55.1398 47.5462 55.5318C47.3382 55.9158 47.0102 56.2278 46.5622 56.4678C46.1222 56.6998 45.5542 56.8158 44.8582 56.8158H43.3582V60.1038H41.7382ZM46.0942 60.1038L44.3662 56.4078H46.1182L47.9422 60.1038H46.0942ZM43.3582 55.6398H44.7742C45.2622 55.6398 45.6222 55.5198 45.8542 55.2798C46.0862 55.0398 46.2022 54.7238 46.2022 54.3318C46.2022 53.9398 46.0862 53.6318 45.8542 53.4078C45.6302 53.1758 45.2702 53.0598 44.7742 53.0598H43.3582V55.6398ZM49.3085 60.1038V51.7038H54.8285V53.0118H50.9285V55.2078H54.4685V56.4678H50.9285V58.7958H54.8285V60.1038H49.3085ZM56.3046 60.1038V51.7038H59.1126C60.0886 51.7038 60.8926 51.8798 61.5246 52.2318C62.1646 52.5758 62.6366 53.0638 62.9406 53.6958C63.2526 54.3198 63.4086 55.0558 63.4086 55.9038C63.4086 56.7518 63.2526 57.4918 62.9406 58.1238C62.6366 58.7478 62.1686 59.2358 61.5366 59.5878C60.9046 59.9318 60.0966 60.1038 59.1126 60.1038H56.3046ZM57.9246 58.7118H59.0286C59.7166 58.7118 60.2566 58.5998 60.6486 58.3758C61.0486 58.1518 61.3326 57.8318 61.5006 57.4158C61.6686 56.9918 61.7526 56.4878 61.7526 55.9038C61.7526 55.3118 61.6686 54.8078 61.5006 54.3918C61.3326 53.9678 61.0486 53.6438 60.6486 53.4198C60.2566 53.1958 59.7166 53.0838 59.0286 53.0838H57.9246V58.7118ZM67.6132 60.1038V51.7038H69.2332V60.1038H67.6132ZM70.8827 60.1038V51.7038H72.5027L76.3667 57.4998V51.7038H77.9867V60.1038H76.3667L72.5027 54.3198V60.1038H70.8827ZM82.4491 60.1038V51.7038H84.3811L86.9491 56.9478L89.4931 51.7038H91.4251V60.1038H89.8051V54.4638L87.5851 58.9278H86.3011L84.0691 54.4638V60.1038H82.4491ZM93.078 60.1038V51.7038H94.698V60.1038H93.078ZM96.3475 60.1038V51.7038H97.9675L101.832 57.4998V51.7038H103.452V60.1038H101.832L97.9675 54.3198V60.1038H96.3475ZM108.342 60.2478C107.726 60.2478 107.166 60.1238 106.662 59.8758C106.158 59.6278 105.758 59.2558 105.462 58.7598C105.166 58.2638 105.018 57.6318 105.018 56.8638V51.7038H106.638V56.8758C106.638 57.2918 106.706 57.6438 106.842 57.9318C106.978 58.2118 107.174 58.4198 107.43 58.5558C107.694 58.6918 108.006 58.7598 108.366 58.7598C108.734 58.7598 109.046 58.6918 109.302 58.5558C109.566 58.4198 109.766 58.2118 109.902 57.9318C110.038 57.6438 110.106 57.2918 110.106 56.8758V51.7038H111.726V56.8638C111.726 57.6318 111.574 58.2638 111.27 58.7598C110.966 59.2558 110.554 59.6278 110.034 59.8758C109.522 60.1238 108.958 60.2478 108.342 60.2478ZM115.261 60.1038V53.0118H112.801V51.7038H119.317V53.0118H116.869V60.1038H115.261ZM120.465 60.1038V51.7038H125.985V53.0118H122.085V55.2078H125.625V56.4678H122.085V58.7958H125.985V60.1038H120.465ZM130.353 60.2478C129.745 60.2478 129.201 60.1438 128.721 59.9358C128.249 59.7278 127.873 59.4238 127.593 59.0238C127.321 58.6238 127.181 58.1398 127.173 57.5718H128.889C128.897 57.8198 128.961 58.0438 129.081 58.2438C129.201 58.4438 129.365 58.6038 129.573 58.7238C129.789 58.8358 130.045 58.8918 130.341 58.8918C130.597 58.8918 130.817 58.8518 131.001 58.7718C131.193 58.6838 131.341 58.5638 131.445 58.4118C131.549 58.2598 131.601 58.0798 131.601 57.8718C131.601 57.6318 131.541 57.4318 131.421 57.2718C131.309 57.1118 131.149 56.9758 130.941 56.8638C130.741 56.7518 130.505 56.6518 130.233 56.5638C129.969 56.4678 129.689 56.3678 129.393 56.2638C128.729 56.0478 128.221 55.7598 127.869 55.3998C127.525 55.0398 127.353 54.5638 127.353 53.9718C127.353 53.4678 127.473 53.0358 127.713 52.6758C127.961 52.3158 128.301 52.0398 128.733 51.8478C129.165 51.6558 129.657 51.5598 130.209 51.5598C130.777 51.5598 131.273 51.6598 131.697 51.8598C132.129 52.0518 132.469 52.3318 132.717 52.6998C132.973 53.0678 133.105 53.4998 133.113 53.9958H131.385C131.377 53.8118 131.321 53.6398 131.217 53.4798C131.121 53.3118 130.985 53.1798 130.809 53.0838C130.633 52.9798 130.425 52.9278 130.185 52.9278C129.977 52.9198 129.785 52.9518 129.609 53.0238C129.441 53.0958 129.305 53.2038 129.201 53.3478C129.105 53.4838 129.057 53.6558 129.057 53.8638C129.057 54.0638 129.105 54.2318 129.201 54.3678C129.305 54.5038 129.445 54.6238 129.621 54.7278C129.797 54.8238 130.005 54.9158 130.245 55.0038C130.485 55.0838 130.745 55.1678 131.025 55.2558C131.441 55.3998 131.825 55.5718 132.177 55.7718C132.529 55.9638 132.809 56.2158 133.017 56.5278C133.225 56.8398 133.329 57.2518 133.329 57.7638C133.329 58.2038 133.213 58.6118 132.981 58.9878C132.749 59.3638 132.413 59.6678 131.973 59.8998C131.541 60.1318 131.001 60.2478 130.353 60.2478ZM135.039 57.3678L134.859 51.7038H136.599L136.419 57.3678H135.039ZM135.735 60.1638C135.439 60.1638 135.195 60.0758 135.003 59.8998C134.819 59.7158 134.727 59.4918 134.727 59.2278C134.727 58.9638 134.819 58.7438 135.003 58.5678C135.195 58.3838 135.439 58.2918 135.735 58.2918C136.031 58.2918 136.271 58.3838 136.455 58.5678C136.639 58.7438 136.731 58.9638 136.731 59.2278C136.731 59.4918 136.639 59.7158 136.455 59.8998C136.271 60.0758 136.031 60.1638 135.735 60.1638Z" fill="#ED1C23"/>
</svg>